<svg width="517" height="41" fill="none" xmlns="http://www.w3.org/2000/svg"><g clip-path="url(#clip0_30702_620)"><path d="M31.7 26.69l-3.1-3.1c.9-1.2 1.4-2.6 1.4-4.2 0-3.9-3.1-7-7-7s-7 3.1-7 7 3.1 7 7 7c1.6 0 3-.5 4.2-1.4l3.1 3.1c.2.2.4.3.7.3.6 0 1-.4 1-1 0-.2-.1-.5-.3-.7zM18 19.39c0-2.8 2.2-5 5-5s5 2.2 5 5-2.2 5-5 5-5-2.2-5-5z" fill="#000"/></g><path d="M20 1.39h338v38H20a19 19 0 0 1 0-38zM358 1.39h139a19 19 0 0 1 0 38H358v-38z" stroke="#000" stroke-width="2"/><path d="M358 1.39h139a19 19 0 0 1 0 38H358v-38z" stroke="#000" stroke-width="2"/><defs><clipPath id="clip0_30702_620"><path fill="#fff" transform="translate(16 12.39)" d="M0 0h16v16H0z"/></clipPath></defs></svg>